<svg viewBox="0, 0, 400,222.22222222222223" height="222.22222222222223" width="400" xmlns:xlink="http://www.w3.org/1999/xlink" xmlns="http://www.w3.org/2000/svg" id="svg"><g id="svgg"><path fill-rule="evenodd" fill="#000000" stroke="none" d="M238.349 4.105 C 232.308 5.259,222.708 6.720,217.016 7.350 C 207.412 8.413,206.646 8.638,206.383 10.470 C 206.178 11.890,206.553 12.445,207.716 12.448 C 211.044 12.455,214.989 15.800,215.971 19.448 C 216.617 21.846,216.845 45.044,216.683 91.868 C 216.414 169.575,216.974 163.690,209.498 167.407 C 207.428 168.436,206.222 169.663,206.222 170.740 C 206.222 172.386,207.235 172.444,235.556 172.444 C 267.576 172.444,269.817 172.024,261.625 167.556 C 254.066 163.432,254.697 171.001,254.430 81.268 L 254.194 1.778 251.764 1.891 C 250.427 1.954,244.390 2.950,238.349 4.105 M0.889 5.276 C 0.889 7.216,1.224 7.434,5.730 8.431 C 9.968 9.369,13.785 14.177,15.022 20.138 C 17.008 29.702,15.999 155.874,13.899 160.678 C 11.983 165.060,8.452 167.894,4.008 168.615 C 1.727 168.986,0.889 169.571,0.889 170.793 C 0.889 172.910,69.295 173.005,70.000 170.889 C 70.204 170.279,69.637 169.530,68.741 169.227 C 55.602 164.776,55.556 164.632,55.556 128.612 L 55.556 99.447 66.222 99.044 C 84.679 98.346,96.407 93.876,105.621 84.026 C 125.881 62.368,120.406 23.332,95.226 9.911 C 84.822 4.366,83.425 4.210,40.222 3.778 L 0.889 3.386 0.889 5.276 M69.941 15.061 C 78.267 18.841,80.447 26.234,80.439 50.667 C 80.430 81.343,76.245 89.778,61.033 89.778 L 55.111 89.778 55.111 51.556 L 55.111 13.333 60.667 13.353 C 64.190 13.365,67.583 13.990,69.941 15.061 M145.254 52.875 C 132.729 55.600,122.277 63.652,116.307 75.175 C 110.382 86.612,111.052 90.049,117.692 82.276 C 131.404 66.227,159.111 69.774,159.111 87.579 C 159.111 94.417,158.094 95.036,134.093 102.796 C 110.062 110.565,105.560 114.411,103.039 129.327 C 97.850 160.034,112.382 178.727,138.045 174.354 C 147.086 172.813,158.988 164.536,159.144 159.682 C 159.161 159.123,160.211 160.807,161.476 163.423 C 171.661 184.480,207.007 177.094,208.697 153.556 C 209.295 145.220,206.108 144.429,204.433 152.497 C 203.161 158.628,200.017 160.868,197.335 157.556 C 195.903 155.787,195.731 152.129,195.356 115.365 C 194.899 70.509,194.704 69.043,188.211 61.648 C 180.736 53.134,161.819 49.270,145.254 52.875 M260.444 56.022 C 260.444 57.167,261.333 58.160,262.887 58.751 C 271.579 62.055,271.492 61.537,272.000 112.889 C 272.435 156.783,272.487 157.857,274.367 161.333 C 283.815 178.811,310.515 179.783,328.552 163.305 L 333.629 158.667 333.066 168.444 C 331.938 188.026,327.333 195.264,313.793 198.732 C 300.665 202.096,286.497 196.790,281.716 186.720 C 279.803 182.691,277.742 180.629,276.684 181.686 C 275.755 182.616,278.593 192.502,281.400 198.113 C 296.071 227.439,348.368 228.187,363.050 199.282 C 368.305 188.936,368.360 188.142,368.680 118.444 L 368.975 54.222 344.932 54.222 C 321.856 54.222,320.889 54.291,320.889 55.921 C 320.889 57.041,322.182 58.245,324.686 59.457 C 332.255 63.121,332.000 61.367,332.000 109.778 C 332.000 161.122,332.124 160.641,318.845 160.839 C 307.999 161.000,308.108 161.564,307.756 103.333 L 307.459 54.222 283.952 54.222 C 260.941 54.222,260.444 54.260,260.444 56.022 M379.295 56.014 C 371.798 61.911,375.902 73.778,385.439 73.778 C 391.463 73.778,395.111 70.090,395.111 64.000 C 395.111 55.693,385.727 50.955,379.295 56.014 M390.889 59.194 C 396.502 65.476,388.800 74.730,381.640 70.306 C 376.630 67.210,376.627 60.791,381.635 57.697 C 385.045 55.590,388.112 56.086,390.889 59.194 M381.333 63.556 C 381.333 68.344,384.832 71.598,384.917 66.889 C 384.944 65.407,385.002 65.407,386.126 66.889 C 388.058 69.434,391.691 69.017,390.005 66.444 C 389.066 65.011,388.951 64.038,389.600 63.010 C 391.306 60.306,389.706 58.667,385.361 58.667 L 381.333 58.667 381.333 63.556 M158.669 152.628 C 157.487 159.199,147.309 161.668,142.252 156.611 C 139.254 153.613,137.972 140.406,139.089 124.020 C 139.994 110.751,141.380 108.320,151.111 102.933 L 158.667 98.750 158.924 124.264 C 159.066 138.297,158.951 151.060,158.669 152.628" id="path0"></path></g></svg>